<svg width="134" height="40" viewBox="0 0 134 40" fill="none" xmlns="http://www.w3.org/2000/svg">
<path d="M12.4137 20.4986H10.4646C8.9615 20.4986 7.77129 19.2872 7.77129 17.7734C7.77129 16.7504 7.78327 15.6256 7.78327 15.4716C7.77395 15.1732 7.5383 14.9326 7.25073 14.9326C7.02041 14.9326 6.7182 15.1114 6.7182 15.4826C6.71687 15.4909 6.68492 17.8559 6.67294 19.7548C6.6716 20.0614 6.31347 20.2319 6.09114 20.0077C4.85965 18.7675 2.76546 16.6582 1.86415 15.7507C1.28502 15.1677 0.993455 14.3455 1.00011 13.5122C1.00677 12.7945 1.01475 11.8678 1.02141 10.9699C1.02807 10.1559 1.66844 9.5 2.45659 9.5H4.51218C5.26172 9.5 5.98064 9.81075 6.50652 10.3635L6.6503 10.5148C8.45826 12.4123 11.4072 15.5197 13.544 17.7706C14.5185 18.7977 13.8062 20.5 12.415 20.5L12.4137 20.4986Z" fill="#333333"/>
<path d="M1.70229 20.5013H3.8013C5.42 20.5013 6.70177 21.6025 6.70177 22.9788C6.70177 23.9088 6.68886 24.9313 6.68886 25.0713C6.6989 25.3425 6.95267 25.5612 7.26236 25.5612C7.5104 25.5612 7.83586 25.3987 7.83586 25.0612C7.8373 25.0537 7.87171 22.9037 7.88461 21.1775C7.88604 20.8987 8.27172 20.7438 8.51116 20.9475C9.83737 22.075 12.0927 23.9925 13.0633 24.8175C13.687 25.3475 14.001 26.095 13.9938 26.8525C13.9866 27.505 13.978 28.3475 13.9709 29.1637C13.9637 29.9037 13.2741 30.5 12.4253 30.5H10.2116C9.40438 30.5 8.63016 30.2175 8.06383 29.715L7.90898 29.5775C5.96196 27.8525 2.78621 25.0275 0.485043 22.9813C-0.56446 22.0475 0.202594 20.5 1.70086 20.5L1.70229 20.5013Z" fill="#333333"/>
<g class="logo-main-group">
<path d="M97.924 12.0049H86.7617V27.9945H97.9218C101.002 27.9945 103.506 25.451 103.506 22.3233V17.6717C103.506 14.5462 101.002 12.0049 97.924 12.0049ZM100.636 21.7413C100.636 23.5561 99.1839 25.0311 97.3968 25.0311H89.6316V14.9172H97.3968C99.1839 14.9172 100.636 16.3922 100.636 18.207V21.7413Z" fill="#333333"/>
<path d="M36.2468 19.9235C35.3544 18.975 34.3591 18.5352 33.1079 18.5352H25.3186C24.9511 18.5352 24.6296 18.4019 24.3693 18.142C24.1068 17.8798 23.9734 17.5533 23.9734 17.1779V16.2827C23.9734 15.905 24.1068 15.5807 24.3693 15.3186C24.6318 15.0565 24.9511 14.9254 25.3208 14.9254H36.9118V12.0087H25.3208C24.1024 12.0087 22.9519 12.5152 22.1688 13.3993C21.3791 14.2879 20.9941 15.3808 20.9941 16.7403V16.7203C20.9941 17.6466 21.1648 18.9461 22.1731 20.0657C23.035 21.0231 24.144 21.4407 25.323 21.4518H33.1123C33.4776 21.4518 33.7969 21.5873 34.0616 21.8539C34.3241 22.1205 34.4575 22.4426 34.4575 22.8091V23.6843C34.4575 24.0509 34.3241 24.3685 34.0616 24.6306C33.7969 24.8928 33.4776 25.026 33.1101 25.026H21.5191V27.956H33.1101C34.4116 27.956 35.5293 27.3652 36.2512 26.561C37.2399 25.4592 37.428 24.2397 37.428 23.2289V23.26C37.428 22.2404 37.2093 20.9387 36.249 19.9213L36.2468 19.9235Z" fill="#333333"/>
<path d="M60.2148 12.0048V27.9943H63.0825V12.0048H60.2148Z" fill="#333333"/>
<path d="M83.1874 25.0305V27.9983H70.938C70.903 27.9983 70.868 27.9983 70.8352 27.9983C70.8133 27.9983 70.7914 27.9983 70.7696 27.9983C68.429 27.9983 66.5216 26.1056 66.4516 23.7465C66.4516 23.691 66.4473 23.6332 66.4473 23.5733V12.0087H69.3149V22.9468C69.3149 23.0734 69.3149 23.5133 69.3149 23.5821C69.3149 24.3841 69.958 25.0349 70.7455 25.0349C70.7958 25.0349 71.4039 25.0349 71.5723 25.0349H83.1917L83.1874 25.0305Z" fill="#333333"/>
<path d="M126.722 12.0062V27.9957H123.855V14.9384H122.337C122.315 14.9384 122.297 14.9384 122.275 14.9384C122.068 14.9518 121.877 15.0362 121.731 15.1695C121.713 15.185 121.696 15.2006 121.678 15.2183C121.623 15.2761 121.444 15.5404 121.403 15.6093L120.158 17.5686L113.53 27.9913H110.148L119.145 13.7567C119.23 13.6189 119.322 13.4879 119.423 13.3613C119.933 12.5949 120.773 12.0729 121.735 12.0062C121.801 12.0062 121.868 12.0018 121.934 12.0018C122 12.0018 122.063 12.0018 122.127 12.0084C122.194 12.004 122.264 12.0018 122.332 12.0018H126.724L126.722 12.0062Z" fill="#333333"/>
<path d="M130.295 12.005V27.9945H133.163V12.005H130.295Z" fill="#333333"/>
<path d="M43.3677 12.0049H40.5V27.9922H43.3677V12.0049Z" fill="#333333"/>
<path d="M57.1332 27.9419H53.8565C53.8565 27.9419 50.4179 22.4684 50.3917 22.4284C50.0986 21.9953 49.6698 21.6598 49.1667 21.4888C48.9261 21.4066 48.668 21.3622 48.399 21.3622C48.3443 21.3622 48.2918 21.3622 48.2393 21.3666C48.143 21.3666 48.0402 21.3622 47.9309 21.3622H45.002V18.6388H47.9309C48.2043 18.6388 48.4427 18.6254 48.6549 18.601C48.6702 18.601 48.8824 18.5677 48.8955 18.5655C49.4883 18.4411 50.0001 18.1012 50.3457 17.628C50.3939 17.5614 53.8434 12.059 53.8434 12.059H57.1201L52.4413 19.5162C52.2532 19.8117 52.2532 20.1915 52.4413 20.487L57.131 27.9419H57.1332Z" fill="#333333"/>
</g>
</svg>
