<svg xmlns="http://www.w3.org/2000/svg" version="1.1" xmlns:xlink="http://www.w3.org/1999/xlink" xmlns:svgjs="http://svgjs.dev/svgjs" width="100%" height="100%" viewBox="0 0 1000 600"><rect width="1000" height="600" x="0" y="0" fill="#000084"/><g><rect width="333.3333333333333" height="333.3333333333333" y="251.31706678544978" fill="#404040" transform="matrix(0.5456254893778422,0,0,0.5456254893778422,0,71.93740319254042)" x="229.09486389160156"/><path d="M397.6651802350381 492.98374597985827L340.0623589906794 492.98374597985827L340.0623589906794 342.9837432902949L355.78503847353375 342.9837432902949L355.78503847353375 481.5618891358116L397.6651802350381 481.5618891358116L397.6651802350381 492.98374597985827ZM425.8320432547705 492.98374597985827L409.8625952598534 492.98374597985827L409.8625952598534 354.40560013434157L384.72745967403466 354.40560013434157L384.72745967403466 342.9837432902949L451.46071586471464 342.9837432902949L451.46071586471464 354.40560013434157L425.8320432547705 354.40560013434157L425.8320432547705 492.98374597985827Z " fill="#ffffff" transform="matrix(0.5456254893778422,0,0,0.5456254893778422,0,71.93740319254042)"/><path d="M678.3108112064481 469.499179985736L665.6481110305947 469.499179985736L665.6481110305947 359.8580469652958L645.7615356442875 359.8580469652958L645.7615356442875 350.8212300997088L698.587866333861 350.8212300997088L698.587866333861 359.8580469652958L678.3108112064481 359.8580469652958L678.3108112064481 469.499179985736ZM723.885375275489 469.499179985736L711.4458063802672 469.499179985736L711.4458063802672 342.98374386751755L723.2717642537515 342.98374386751755L723.2717642537515 378.51740030812834Q725.2799457794375 373.91531764509784 730.3003995936525 371.2098508674376Q735.3208534078675 368.47649267969825 742.7678598989531 368.47649267969825L742.7678598989531 368.47649267969825Q753.3944871390416 368.47649267969825 758.3312667230197 372.2139416302806Q763.2401548969189 375.9234991707839 764.6626168109464 381.83647810752603Q766.057187314895 387.77734845434713 766.057187314895 394.80598379424816L766.057187314895 394.80598379424816L766.057187314895 469.499179985736L753.6176184196734 469.499179985736L753.6176184196734 397.39988493159257Q753.6176184196734 394.38761264306356 753.3944871390416 391.0685348436659Q753.1992472684888 387.77734845434713 751.8883509947772 384.9603160363709Q750.6053461311444 382.1432836183947 747.4815082022994 380.3303419632615Q744.3576702734546 378.51740030812834 738.7514968475812 378.51740030812834L738.7514968475812 378.51740030812834Q733.5358031628133 378.51740030812834 730.3003995936525 380.13510209270873Q727.0928874345707 381.7528038772891 725.5867512903062 384.03989950376484Q724.0806151460417 386.3548865403195 723.885375275489 387.97258832489996L723.885375275489 387.97258832489996L723.885375275489 469.499179985736ZM811.4365115133829 471.31212164086924L811.4365115133829 471.31212164086924Q801.395603884953 471.31212164086924 795.1758194373422 468.9971346043145Q788.9560349897313 466.68214756775984 786.1390025717551 460.462363120149Q783.3219701537789 454.2425786725382 783.3219701537789 442.3887293889749L783.3219701537789 442.3887293889749L783.3219701537789 392.7978022685621Q783.3219701537789 378.9357714593129 789.6533202417056 373.7200777745451Q795.9846703296323 368.47649267969825 810.6276606210928 368.47649267969825L810.6276606210928 368.47649267969825Q824.9080625815267 368.47649267969825 831.2115212593744 373.7200777745451Q837.5428713473011 378.9357714593129 837.5428713473011 392.7978022685621L837.5428713473011 392.7978022685621L837.5428713473011 418.48579095129566L795.7894304590795 418.48579095129566L795.7894304590795 446.6003323108998Q795.7894304590795 456.25076019822416 798.8017027476086 459.9603177387275Q801.8139750361375 463.6698752792308 811.0460317722774 463.6698752792308L811.0460317722774 463.6698752792308Q819.4692376161271 463.6698752792308 822.2862700341033 460.0718833790434Q825.1033024520794 456.446000068777 825.1033024520794 446.6003323108998L825.1033024520794 446.6003323108998L825.1033024520794 433.7423922644935L837.5428713473011 433.7423922644935L837.5428713473011 442.19348951842215Q837.5428713473011 453.82420752135357 834.7258389293249 460.15555760928027Q831.9366979214277 466.486907697207 826.1910674451593 468.88556896399865Q820.47332837897 471.31212164086924 811.4365115133829 471.31212164086924ZM795.7894304590795 391.79371150571916L795.7894304590795 412.070766633132L825.1033024520794 412.070766633132L825.1033024520794 391.79371150571916Q825.1033024520794 383.3426142517905 822.2862700341033 379.5214910709713Q819.4692376161271 375.72825930023106 810.6276606210928 375.72825930023106L810.6276606210928 375.72825930023106Q801.8139750361375 375.72825930023106 798.8017027476086 379.5214910709713Q795.7894304590795 383.3426142517905 795.7894304590795 391.79371150571916L795.7894304590795 391.79371150571916ZM940.1553690278403 469.499179985736L894.5808049587995 469.499179985736L894.5808049587995 350.8212300997088L907.0203738540212 350.8212300997088L907.0203738540212 460.462363120149L940.1553690278403 460.462363120149L940.1553690278403 469.499179985736ZM977.1114873824787 470.89375048968463L977.1114873824787 470.89375048968463Q965.8712491206528 470.89375048968463 959.9582701839106 467.49099846005004Q954.0173998370896 464.0882464304154 951.9255440811665 457.56165647193586Q949.8057969151647 451.03506651345634 949.8057969151647 441.77511836723755L949.8057969151647 441.77511836723755L949.8057969151647 395.3917034059066Q949.8057969151647 387.55421717371536 951.8139784408507 381.52967259665735Q953.8221599665367 375.5051280195993 959.8467045435947 371.99081034964877Q965.8712491206528 368.47649267969825 977.1114873824787 368.47649267969825L977.1114873824787 368.47649267969825Q988.5748569249362 368.47649267969825 994.3762702213625 371.99081034964877Q1000.2055749278677 375.5051280195993 1002.3253220938695 381.52967259665735Q1004.4171778497924 387.55421717371536 1004.4171778497924 395.3917034059066L1004.4171778497924 395.3917034059066L1004.4171778497924 441.77511836723755Q1004.4171778497924 451.03506651345634 1002.2137564535536 457.56165647193586Q1000.0103350573148 464.0882464304154 994.0973561205727 467.49099846005004Q988.1564857737516 470.89375048968463 977.1114873824787 470.89375048968463ZM977.1114873824787 463.27939553812524L977.1114873824787 463.27939553812524Q984.1401227223796 463.27939553812524 987.1523950109087 460.462363120149Q990.1646672994376 457.64533070217277 991.0850838320438 453.32216213993206Q991.9776089545709 449.0268849877703 991.9776089545709 444.39691091466096L991.9776089545709 444.39691091466096L991.9776089545709 394.80598379424816Q991.9776089545709 390.17600972113877 991.0850838320438 385.9644067992139Q990.1646672994376 381.7528038772891 987.1523950109087 379.01944568954985Q984.1401227223796 376.3139789118895 977.1114873824787 376.3139789118895L977.1114873824787 376.3139789118895Q970.2780919131304 376.3139789118895 967.0705797540485 379.01944568954985Q963.8630675949668 381.7528038772891 963.0542167026765 385.9644067992139Q962.2453658103863 390.17600972113877 962.2453658103863 394.80598379424816L962.2453658103863 394.80598379424816L962.2453658103863 444.39691091466096Q962.2453658103863 449.0268849877703 963.0542167026765 453.32216213993206Q963.8630675949668 457.64533070217277 967.0705797540485 460.462363120149Q970.2780919131304 463.27939553812524 977.1114873824787 463.27939553812524ZM1051.218963962308 469.499179985736L1036.9664534119534 469.499179985736L1014.6812167588542 370.09419446427864L1026.7303059129704 370.09419446427864L1044.190328622407 453.6289676508008L1061.259871590738 370.09419446427864L1073.1137208743012 370.09419446427864L1091.1873546054753 453.6289676508008L1107.4480466815162 370.09419446427864L1119.3018959650794 370.09419446427864L1097.7976187941917 469.499179985736L1083.5451082438371 469.499179985736L1067.0891762972433 394.80598379424816L1051.218963962308 469.499179985736ZM1158.043064564772 471.31212164086924L1158.043064564772 471.31212164086924Q1148.002156936342 471.31212164086924 1141.7823724887312 468.9971346043145Q1135.5625880411203 466.68214756775984 1132.745555623144 460.462363120149Q1129.928523205168 454.2425786725382 1129.928523205168 442.3887293889749L1129.928523205168 442.3887293889749L1129.928523205168 392.7978022685621Q1129.928523205168 378.9357714593129 1136.2598732930946 373.7200777745451Q1142.5912233810213 368.47649267969825 1157.262105082561 368.47649267969825L1157.262105082561 368.47649267969825Q1171.5146156329156 368.47649267969825 1177.8459657208423 373.7200777745451Q1184.14942439869 378.9357714593129 1184.14942439869 392.7978022685621L1184.14942439869 392.7978022685621L1184.14942439869 418.48579095129566L1142.3959835104683 418.48579095129566L1142.3959835104683 446.6003323108998Q1142.3959835104683 456.25076019822416 1145.4082557989977 459.9603177387275Q1148.4205280875267 463.6698752792308 1157.6525848236663 463.6698752792308L1157.6525848236663 463.6698752792308Q1166.075790667516 463.6698752792308 1168.8928230854922 460.0718833790434Q1171.7098555034686 456.446000068777 1171.7098555034686 446.6003323108998L1171.7098555034686 446.6003323108998L1171.7098555034686 433.7423922644935L1184.14942439869 433.7423922644935L1184.14942439869 442.19348951842215Q1184.14942439869 453.82420752135357 1181.360283390793 460.15555760928027Q1178.5432509728166 466.486907697207 1172.8255119066273 468.88556896399865Q1167.079881430359 471.31212164086924 1158.043064564772 471.31212164086924ZM1142.3959835104683 391.79371150571916L1142.3959835104683 412.070766633132L1171.7098555034686 412.070766633132L1171.7098555034686 391.79371150571916Q1171.7098555034686 383.3426142517905 1168.8928230854922 379.5214910709713Q1166.075790667516 375.72825930023106 1157.262105082561 375.72825930023106L1157.262105082561 375.72825930023106Q1148.4205280875267 375.72825930023106 1145.4082557989977 379.5214910709713Q1142.3959835104683 383.3426142517905 1142.3959835104683 391.79371150571916L1142.3959835104683 391.79371150571916ZM1226.1259965675436 471.1168817703164L1226.1259965675436 471.1168817703164Q1216.503460090298 471.1168817703164 1210.8693952543456 468.8018947337617Q1205.2353304183932 466.486907697207 1202.6414292810487 462.5821102861509Q1200.0196367336252 458.6494214650158 1199.210785841335 453.6289676508008Q1198.429826359124 448.60851383658576 1198.429826359124 443.0023404107123L1198.429826359124 443.0023404107123L1198.429826359124 435.5553339196267L1211.0646351248984 435.5553339196267L1211.0646351248984 444.78739065576656Q1211.0646351248984 450.0309757506133 1211.56668050632 454.3262529027751Q1212.0687258877415 458.6494214650158 1215.2762380468232 461.1596483721233Q1218.511641615984 463.6698752792308 1225.9307566969906 463.6698752792308L1225.9307566969906 463.6698752792308Q1232.764152166339 463.6698752792308 1235.8600986851047 461.1596483721233Q1238.9839366139497 458.6494214650158 1239.681221865924 454.8282982841966Q1240.3785071178984 451.03506651345634 1240.3785071178984 447.79966294429556L1240.3785071178984 447.79966294429556L1240.3785071178984 442.19348951842215Q1240.3785071178984 437.1730357042071 1238.593456872844 433.54715239394073Q1236.780515217711 429.94916049375325 1232.8478263965758 427.215802306014Q1228.9430289855195 424.51033552835366 1222.7232445379088 422.1116742615621L1222.7232445379088 422.1116742615621Q1216.0850889391136 419.4898817141387 1211.0646351248984 416.4776094256096Q1206.0441813106834 413.46533713708067 1203.1434746624702 408.7516888337343Q1200.2148766041782 404.038040530388 1200.2148766041782 396.5910340393024L1200.2148766041782 396.5910340393024L1200.2148766041782 390.56648946224436Q1200.2148766041782 380.13510209270873 1206.350986821552 374.11055751565067Q1212.487097038926 368.08601293859266 1227.1300873303865 368.08601293859266L1227.1300873303865 368.08601293859266Q1236.780515217711 368.08601293859266 1242.4982542839002 370.70780548601607Q1248.2159933500895 373.3017066233605 1250.92146012775 379.1310113298657Q1253.6548183154891 384.9603160363709 1253.6548183154891 394.38761264306356L1253.6548183154891 394.38761264306356L1253.6548183154891 402.83870989699216L1241.3825978807413 402.83870989699216L1241.3825978807413 392.99304213911495Q1241.3825978807413 382.9521345106849 1237.9798458511068 379.2425769701816Q1234.577093821472 375.5051280195993 1227.1300873303865 375.5051280195993L1227.1300873303865 375.5051280195993Q1218.706881486537 375.5051280195993 1215.7782834282448 379.5214910709713Q1212.8775767800316 383.53785412234333 1212.8775767800316 389.56239869940134L1212.8775767800316 389.56239869940134L1212.8775767800316 395.00122366480093Q1212.8775767800316 400.8305283713062 1215.3878036871392 404.4285202714936Q1217.8980305942466 408.05440358176 1222.528004667356 410.5646304888675Q1227.1300873303865 413.074857395975 1233.5730030586292 415.6687585333195L1233.5730030586292 415.6687585333195Q1239.3744163550555 418.09531121019 1243.892824787849 420.91234362816624Q1248.4112332206423 423.70148463606347 1251.0330257680657 428.33145870917286Q1253.6548183154891 432.9614327822823 1253.6548183154891 441.18939875557913L1253.6548183154891 441.18939875557913L1253.6548183154891 445.7914814186095Q1253.6548183154891 452.42963701740496 1251.6466367898033 458.1473760835943Q1249.638455264117 463.8651151497836 1243.809150557612 467.49099846005004Q1237.9798458511068 471.1168817703164 1226.1259965675436 471.1168817703164ZM1293.204837807472 469.69441985628885L1293.204837807472 469.69441985628885Q1288.7979950149943 469.69441985628885 1285.1721117047277 468.6903290934458Q1281.5462283944617 467.6862383306028 1278.9523272571173 465.37125129404814Q1276.330534709694 463.08415566757236 1274.9359642057452 459.3467067169901Q1273.5135022917175 455.6371491764868 1273.5135022917175 450.0309757506133L1273.5135022917175 450.0309757506133L1273.5135022917175 377.93168069646987L1264.6998167067622 377.93168069646987L1264.6998167067622 371.4887649682273L1274.3223531840076 370.09419446427864L1276.5257745802464 351.4069497113672L1285.9809625970183 351.4069497113672L1285.9809625970183 370.09419446427864L1307.457348357827 370.09419446427864L1307.457348357827 377.93168069646987L1285.9809625970183 377.93168069646987L1285.9809625970183 447.79966294429556Q1285.9809625970183 453.433727780248 1287.9891441227041 457.2548509610672Q1289.99732564839 461.0759741418864 1296.8307211177384 461.0759741418864L1296.8307211177384 461.0759741418864Q1299.6198621256358 461.0759741418864 1302.8552656947963 460.7691686310177Q1306.0627778538783 460.462363120149 1307.457348357827 460.462363120149L1307.457348357827 460.462363120149L1307.457348357827 468.495089222893Q1305.8675379833253 468.495089222893 1301.8511749319532 469.1087002446304Q1297.8348118805816 469.69441985628885 1293.204837807472 469.69441985628885ZM1381.5648249376563 469.499179985736L1368.902124761803 469.499179985736L1368.902124761803 359.8580469652958L1349.0434407855746 359.8580469652958L1349.0434407855746 350.8212300997088L1401.8418800650693 350.8212300997088L1401.8418800650693 359.8580469652958L1381.5648249376563 359.8580469652958L1381.5648249376563 469.499179985736ZM1417.9073322705572 492.9837472722307L1417.9073322705572 492.9837472722307Q1413.6957293486325 492.9837472722307 1410.3766515492348 492.39802766057227Q1407.057573749837 491.7844166388349 1405.2725235047828 491.3939368977293L1405.2725235047828 491.3939368977293L1405.2725235047828 483.94693040664373Q1405.8582431164414 484.3653015578283 1407.977990282443 484.75578129893387Q1410.069846038366 485.17415245011847 1412.886878456342 485.17415245011847L1412.886878456342 485.17415245011847Q1415.8991507448713 485.17415245011847 1419.6087082853746 484.17006168727545Q1423.346157235957 483.16597092443243 1425.7448185027483 478.5359968513231L1425.7448185027483 478.5359968513231Q1426.9441491361445 476.52781532563705 1428.450285280409 473.90602277821364Q1429.9564214246734 471.31212164086924 1429.1475705323833 467.88147820115563L1429.1475705323833 467.88147820115563L1406.2766142676255 370.09419446427864L1419.1066629039533 370.09419446427864L1437.4034279157586 456.8364798098826L1437.180296635127 456.8364798098826L1454.8634506251956 370.09419446427864L1466.7172999087588 370.09419446427864L1445.0177828673181 465.6780568049168Q1442.0055105787892 479.54008761416605 1435.5904862606258 486.2619174431984Q1429.1475705323833 492.9837472722307 1417.9073322705572 492.9837472722307ZM1490.8154782169909 492.7885074016779L1478.571149192322 492.7885074016779L1478.571149192322 370.09419446427864L1490.2018671952537 370.09419446427864L1490.6202383464379 378.9357714593129Q1492.405288591492 374.7241685373881 1496.4216516428642 371.71189624885903Q1500.4380146942362 368.6996239603301 1509.6979628404551 368.6996239603301L1509.6979628404551 368.6996239603301Q1519.1252594471475 368.6996239603301 1524.1457132613627 371.90713611941186Q1529.166167075578 375.1146482784937 1531.1743486012638 380.7487131144461Q1533.1825301269496 386.3548865403195 1533.1825301269496 393.80189303140514L1533.1825301269496 393.80189303140514L1533.1825301269496 442.7792091300806Q1533.1825301269496 451.03506651345634 1531.3695884718168 457.45009083162Q1529.5566468166835 463.8651151497836 1524.5361930024683 467.3794328197341Q1519.5157391882535 470.89375048968463 1509.6979628404551 470.89375048968463L1509.6979628404551 470.89375048968463Q1502.0557164788165 470.89375048968463 1497.537308046023 468.495089222893Q1493.0188996132297 466.0964279561014 1490.8154782169909 462.470544645835L1490.8154782169909 462.470544645835L1490.8154782169909 492.7885074016779ZM1505.876839659636 463.27939553812524L1505.876839659636 463.27939553812524Q1511.4830130855094 463.27939553812524 1514.4952853740383 461.6616937535448Q1517.5075576625673 460.0718833790434 1518.930019576595 457.3385251913041Q1520.3245900805437 454.63305841364377 1520.5198299510962 451.3139806142461Q1520.7429612317283 448.02279422492734 1520.7429612317283 444.20167104410814L1520.7429612317283 444.20167104410814L1520.7429612317283 395.8100745570911Q1520.7429612317283 391.9889513762719 1520.5198299510962 388.66987357687424Q1520.3245900805437 385.35079577747655 1518.930019576595 382.5337633595003Q1517.5075576625673 379.7446223516031 1514.4952853740383 378.1269205670227Q1511.4830130855094 376.5092187824423 1505.876839659636 376.5092187824423L1505.876839659636 376.5092187824423Q1500.2427748236832 376.5092187824423 1497.2305025351543 378.51740030812834Q1494.2182302466254 380.52558183381433 1492.8236597426767 383.844659633212Q1491.4011978286494 387.1637374326097 1491.2059579580964 390.98486061342896Q1491.0107180875434 394.80598379424816 1491.0107180875434 398.20873582388276L1491.0107180875434 398.20873582388276L1491.0107180875434 445.59624154805675Q1491.0107180875434 450.421455491719 1491.9032432100707 454.54938418340686Q1492.8236597426767 458.6494214650158 1495.9196062614428 460.9644085015705Q1499.0434441902876 463.27939553812524 1505.876839659636 463.27939553812524ZM1577.557763562595 471.31212164086924L1577.557763562595 471.31212164086924Q1567.5168559341646 471.31212164086924 1561.2970714865542 468.9971346043145Q1555.0772870389433 466.68214756775984 1552.2602546209669 460.462363120149Q1549.4432222029905 454.2425786725382 1549.4432222029905 442.3887293889749L1549.4432222029905 442.3887293889749L1549.4432222029905 392.7978022685621Q1549.4432222029905 378.9357714593129 1555.7745722909171 373.7200777745451Q1562.1059223788438 368.47649267969825 1576.7489126703044 368.47649267969825L1576.7489126703044 368.47649267969825Q1591.0293146307386 368.47649267969825 1597.3327733085862 373.7200777745451Q1603.6641233965129 378.9357714593129 1603.6641233965129 392.7978022685621L1603.6641233965129 392.7978022685621L1603.6641233965129 418.48579095129566L1561.9106825082913 418.48579095129566L1561.9106825082913 446.6003323108998Q1561.9106825082913 456.25076019822416 1564.9229547968202 459.9603177387275Q1567.9352270853492 463.6698752792308 1577.167283821489 463.6698752792308L1577.167283821489 463.6698752792308Q1585.5904896653387 463.6698752792308 1588.4075220833151 460.0718833790434Q1591.224554501291 456.446000068777 1591.224554501291 446.6003323108998L1591.224554501291 446.6003323108998L1591.224554501291 433.7423922644935L1603.6641233965129 433.7423922644935L1603.6641233965129 442.19348951842215Q1603.6641233965129 453.82420752135357 1600.847090978537 460.15555760928027Q1598.0579499706396 466.486907697207 1592.3123194943714 468.88556896399865Q1586.5945804281819 471.31212164086924 1577.557763562595 471.31212164086924ZM1561.9106825082913 391.79371150571916L1561.9106825082913 412.070766633132L1591.224554501291 412.070766633132L1591.224554501291 391.79371150571916Q1591.224554501291 383.3426142517905 1588.4075220833151 379.5214910709713Q1585.5904896653387 375.72825930023106 1576.7489126703044 375.72825930023106L1576.7489126703044 375.72825930023106Q1567.9352270853492 375.72825930023106 1564.9229547968202 379.5214910709713Q1561.9106825082913 383.3426142517905 1561.9106825082913 391.79371150571916L1561.9106825082913 391.79371150571916Z " fill="#bbbbbb" transform="matrix(0.5456254893778422,0,0,0.5456254893778422,0,71.93740319254042)"/></g></svg>